<mxfile host="app.diagrams.net" modified="2024-01-06T14:30:42.346Z" agent="Mozilla/5.0 (Windows NT 10.0; Win64; x64; rv:121.0) Gecko/20100101 Firefox/121.0" etag="bZ5FE0Y5oqoGm8HaV0vj" version="22.1.17" type="device">
  <diagram name="PÃ¡gina-1" id="FHlqAFgWbLDdatN3k4EH">
    <mxGraphModel dx="2021" dy="1885" grid="1" gridSize="10" guides="1" tooltips="1" connect="1" arrows="1" fold="1" page="1" pageScale="1" pageWidth="827" pageHeight="1169" math="0" shadow="0">
      <root>
        <mxCell id="0" />
        <mxCell id="1" parent="0" />
        <mxCell id="Z6RdpMls2iOhhNtE3iPN-23" value="" style="rounded=0;whiteSpace=wrap;html=1;dashed=1;strokeWidth=4;fillColor=#e1d5e7;strokeColor=#9673a6;" vertex="1" parent="1">
          <mxGeometry y="294" width="820" height="240" as="geometry" />
        </mxCell>
        <mxCell id="Z6RdpMls2iOhhNtE3iPN-18" value="" style="rounded=0;whiteSpace=wrap;html=1;dashed=1;strokeWidth=4;fillColor=#eeeeee;strokeColor=#36393d;" vertex="1" parent="1">
          <mxGeometry y="48" width="820" height="240" as="geometry" />
        </mxCell>
        <mxCell id="Z6RdpMls2iOhhNtE3iPN-1" value="" style="sketch=0;points=[[0.5,0,0],[1,0.5,0],[0.5,1,0],[0,0.5,0],[0.145,0.145,0],[0.8555,0.145,0],[0.855,0.8555,0],[0.145,0.855,0]];verticalLabelPosition=bottom;html=1;verticalAlign=top;aspect=fixed;align=center;pointerEvents=1;shape=mxgraph.cisco19.rect;prIcon=router;fillColor=#b1ddf0;strokeColor=#10739e;" vertex="1" parent="1">
          <mxGeometry x="340" y="140" width="110" height="110" as="geometry" />
        </mxCell>
        <mxCell id="Z6RdpMls2iOhhNtE3iPN-2" value="" style="sketch=0;points=[[0.015,0.015,0],[0.985,0.015,0],[0.985,0.985,0],[0.015,0.985,0],[0.25,0,0],[0.5,0,0],[0.75,0,0],[1,0.25,0],[1,0.5,0],[1,0.75,0],[0.75,1,0],[0.5,1,0],[0.25,1,0],[0,0.75,0],[0,0.5,0],[0,0.25,0]];verticalLabelPosition=bottom;html=1;verticalAlign=top;aspect=fixed;align=center;pointerEvents=1;shape=mxgraph.cisco19.rect;prIcon=workgroup_switch;fillColor=#b1ddf0;strokeColor=#10739e;" vertex="1" parent="1">
          <mxGeometry x="340" y="340" width="110" height="110" as="geometry" />
        </mxCell>
        <mxCell id="Z6RdpMls2iOhhNtE3iPN-12" value="FIB TABLE" style="rounded=0;whiteSpace=wrap;html=1;fillColor=#fad7ac;strokeColor=#b46504;fontStyle=1;fontSize=16;strokeWidth=4;" vertex="1" parent="1">
          <mxGeometry x="80" y="365" width="180" height="60" as="geometry" />
        </mxCell>
        <mxCell id="Z6RdpMls2iOhhNtE3iPN-13" value="ROUTING TABLE" style="rounded=0;whiteSpace=wrap;html=1;fillColor=#fad7ac;strokeColor=#b46504;fontStyle=1;fontSize=16;strokeWidth=4;" vertex="1" parent="1">
          <mxGeometry x="80" y="165" width="180" height="60" as="geometry" />
        </mxCell>
        <mxCell id="Z6RdpMls2iOhhNtE3iPN-14" value="ARP TABLE" style="rounded=0;whiteSpace=wrap;html=1;fillColor=#fad7ac;strokeColor=#b46504;fontStyle=1;fontSize=16;strokeWidth=4;" vertex="1" parent="1">
          <mxGeometry x="540" y="165" width="180" height="60" as="geometry" />
        </mxCell>
        <mxCell id="Z6RdpMls2iOhhNtE3iPN-15" value="ADJACENCY TABLE" style="rounded=0;whiteSpace=wrap;html=1;fillColor=#fad7ac;strokeColor=#b46504;fontStyle=1;fontSize=16;strokeWidth=4;" vertex="1" parent="1">
          <mxGeometry x="540" y="365" width="180" height="60" as="geometry" />
        </mxCell>
        <mxCell id="Z6RdpMls2iOhhNtE3iPN-16" value="" style="shape=flexArrow;endArrow=classic;html=1;rounded=0;fillColor=#fad7ac;strokeColor=#b46504;strokeWidth=4;width=16;endSize=9.66;" edge="1" parent="1">
          <mxGeometry width="50" height="50" relative="1" as="geometry">
            <mxPoint x="169.5" y="235" as="sourcePoint" />
            <mxPoint x="170" y="355" as="targetPoint" />
          </mxGeometry>
        </mxCell>
        <mxCell id="Z6RdpMls2iOhhNtE3iPN-17" value="" style="shape=flexArrow;endArrow=classic;html=1;rounded=0;fillColor=#fad7ac;strokeColor=#b46504;strokeWidth=4;width=16;endSize=9.66;" edge="1" parent="1">
          <mxGeometry width="50" height="50" relative="1" as="geometry">
            <mxPoint x="633.5" y="234" as="sourcePoint" />
            <mxPoint x="634" y="354" as="targetPoint" />
          </mxGeometry>
        </mxCell>
        <mxCell id="Z6RdpMls2iOhhNtE3iPN-19" value="SWITCH LAYER3" style="text;html=1;strokeColor=none;fillColor=none;align=center;verticalAlign=middle;whiteSpace=wrap;rounded=0;strokeWidth=1;fontSize=16;fontStyle=1" vertex="1" parent="1">
          <mxGeometry x="330" y="-20" width="140" height="30" as="geometry" />
        </mxCell>
        <mxCell id="Z6RdpMls2iOhhNtE3iPN-20" value="L3 ENGINE (IOS SOFTWARE)" style="text;html=1;strokeColor=none;fillColor=none;align=center;verticalAlign=middle;whiteSpace=wrap;rounded=0;strokeWidth=1;fontSize=16;fontStyle=1" vertex="1" parent="1">
          <mxGeometry x="280" y="70" width="230" height="30" as="geometry" />
        </mxCell>
        <mxCell id="Z6RdpMls2iOhhNtE3iPN-21" value="CONTROL PLANE (CONTROLE, APRENDER ROTAS)" style="text;html=1;strokeColor=none;fillColor=none;align=center;verticalAlign=middle;whiteSpace=wrap;rounded=0;strokeWidth=1;fontSize=16;fontStyle=1" vertex="1" parent="1">
          <mxGeometry x="557" y="59" width="250" height="30" as="geometry" />
        </mxCell>
        <mxCell id="Z6RdpMls2iOhhNtE3iPN-24" value="L2 FORWARDING ENGINE (ASIC HARDWARE)" style="text;html=1;strokeColor=none;fillColor=none;align=center;verticalAlign=middle;whiteSpace=wrap;rounded=0;strokeWidth=1;fontSize=16;fontStyle=1" vertex="1" parent="1">
          <mxGeometry x="280" y="477" width="230" height="30" as="geometry" />
        </mxCell>
        <mxCell id="Z6RdpMls2iOhhNtE3iPN-25" value="DATA PLANE (ENCAMINHAMENTO)" style="text;html=1;strokeColor=none;fillColor=none;align=center;verticalAlign=middle;whiteSpace=wrap;rounded=0;strokeWidth=1;fontSize=16;fontStyle=1" vertex="1" parent="1">
          <mxGeometry x="580" y="492" width="230" height="30" as="geometry" />
        </mxCell>
      </root>
    </mxGraphModel>
  </diagram>
</mxfile>
